<svg width="224" height="55" viewBox="0 0 224 55" fill="none" xmlns="http://www.w3.org/2000/svg">
<path d="M88.926 14.059H84.654V28.5596H79.7185V14.059H77V11.6612L79.7185 10.3237V8.9862C79.7185 6.90924 80.2256 5.3923 81.2396 4.43538C82.2537 3.47846 83.8772 3 86.1103 3C87.8148 3 89.3305 3.25554 90.6574 3.76662L89.3952 7.42033C88.4027 7.10498 87.4858 6.9473 86.6443 6.9473C85.9431 6.9473 85.4361 7.15935 85.1232 7.58344C84.8104 7.99665 84.654 8.52949 84.654 9.18193V10.3237H88.926V14.059ZM91.5474 5.60979C91.5474 3.98954 92.4428 3.17942 94.2336 3.17942C96.0244 3.17942 96.9197 3.98954 96.9197 5.60979C96.9197 6.38185 96.6932 6.98536 96.2401 7.42033C95.7978 7.84442 95.129 8.05646 94.2336 8.05646C92.4428 8.05646 91.5474 7.2409 91.5474 5.60979ZM96.6932 28.5596H91.7578V10.3237H96.6932V28.5596Z" fill="#4E3F6B"/>
<path d="M106.807 28.5596H101.871V3.17942H106.807V28.5596Z" fill="#4E3F6B"/>
<path d="M116.937 28.5596H112.001V3.17942H116.937V28.5596Z" fill="#4E3F6B"/>
<path d="M126.063 19.409C126.063 21.2141 126.354 22.5788 126.937 23.5031C127.53 24.4274 128.49 24.8896 129.817 24.8896C131.133 24.8896 132.077 24.4329 132.649 23.5194C133.232 22.5951 133.523 21.225 133.523 19.409C133.523 17.6039 133.232 16.2501 132.649 15.3476C132.067 14.445 131.112 13.9937 129.785 13.9937C128.469 13.9937 127.519 14.445 126.937 15.3476C126.354 16.2392 126.063 17.5931 126.063 19.409ZM138.572 19.409C138.572 22.3777 137.795 24.6993 136.241 26.3739C134.688 28.0485 132.525 28.8858 129.753 28.8858C128.016 28.8858 126.484 28.5052 125.157 27.744C123.83 26.972 122.811 25.8683 122.099 24.4329C121.387 22.9975 121.031 21.3229 121.031 19.409C121.031 16.4295 121.802 14.1133 123.345 12.4605C124.887 10.8076 127.056 9.98118 129.85 9.98118C131.586 9.98118 133.118 10.3618 134.445 11.123C135.772 11.8841 136.792 12.977 137.504 14.4015C138.216 15.826 138.572 17.4952 138.572 19.409Z" fill="#4E3F6B"/>
<path d="M157.52 28.5596L156.129 22.1819L154.252 14.1242H154.138L150.837 28.5596H145.53L140.384 10.3237H145.303L147.391 18.3977C147.725 19.844 148.065 21.8394 148.41 24.3839H148.507C148.55 23.5575 148.739 22.2472 149.074 20.4529L149.332 19.0665L151.566 10.3237H157.003L159.122 19.0665C159.166 19.3057 159.23 19.6591 159.317 20.1267C159.414 20.5943 159.505 21.0945 159.592 21.6274C159.678 22.1493 159.754 22.6658 159.818 23.1769C159.894 23.6771 159.937 24.0795 159.948 24.3839H160.045C160.142 23.601 160.314 22.5299 160.563 21.1706C160.811 19.8005 160.989 18.8762 161.097 18.3977L163.265 10.3237H168.103L162.893 28.5596H157.52Z" fill="#4E3F6B"/>
<path d="M170.336 26.2271C170.336 25.3137 170.579 24.6232 171.065 24.1556C171.55 23.688 172.257 23.4542 173.184 23.4542C174.08 23.4542 174.77 23.6934 175.256 24.1719C175.752 24.6504 176 25.3354 176 26.2271C176 27.0862 175.752 27.7658 175.256 28.266C174.759 28.7553 174.069 29 173.184 29C172.278 29 171.577 28.7608 171.081 28.2823C170.585 27.793 170.336 27.1079 170.336 26.2271Z" fill="#4E3F6B"/>
<path d="M80.368 50.112C79.668 50.112 78.996 50.0093 78.352 49.804C77.7173 49.5893 77.2087 49.3047 76.826 48.95C76.686 48.8193 76.616 48.656 76.616 48.46C76.616 48.3293 76.6533 48.2173 76.728 48.124C76.8027 48.0213 76.8913 47.97 76.994 47.97C77.1153 47.97 77.246 48.0213 77.386 48.124C78.254 48.796 79.2433 49.132 80.354 49.132C81.1567 49.132 81.7727 48.978 82.202 48.67C82.6313 48.362 82.846 47.9233 82.846 47.354C82.846 47.0273 82.7433 46.766 82.538 46.57C82.3327 46.3647 82.062 46.2013 81.726 46.08C81.39 45.9587 80.9373 45.8327 80.368 45.702C79.6027 45.5247 78.9727 45.338 78.478 45.142C77.9927 44.946 77.596 44.666 77.288 44.302C76.9893 43.938 76.84 43.462 76.84 42.874C76.84 42.314 76.9893 41.8193 77.288 41.39C77.596 40.9513 78.0207 40.6153 78.562 40.382C79.1127 40.1393 79.738 40.018 80.438 40.018C81.0913 40.018 81.698 40.1207 82.258 40.326C82.8273 40.522 83.3033 40.8067 83.686 41.18C83.8353 41.3293 83.91 41.4927 83.91 41.67C83.91 41.8007 83.8727 41.9173 83.798 42.02C83.7233 42.1133 83.6347 42.16 83.532 42.16C83.4293 42.16 83.294 42.1087 83.126 42.006C82.6687 41.6327 82.244 41.3713 81.852 41.222C81.46 41.0727 80.9887 40.998 80.438 40.998C79.6633 40.998 79.0613 41.1613 78.632 41.488C78.2027 41.8053 77.988 42.2533 77.988 42.832C77.988 43.3267 78.1747 43.7 78.548 43.952C78.9307 44.1947 79.514 44.4093 80.298 44.596C81.1473 44.8013 81.8147 44.9927 82.3 45.17C82.7853 45.338 83.1867 45.5947 83.504 45.94C83.8307 46.2853 83.994 46.7473 83.994 47.326C83.994 47.8767 83.84 48.362 83.532 48.782C83.2333 49.202 82.8087 49.5287 82.258 49.762C81.7073 49.9953 81.0773 50.112 80.368 50.112ZM88.4766 43.014C90.1846 43.014 91.0386 43.91 91.0386 45.702V49.51C91.0386 49.678 90.9873 49.8133 90.8846 49.916C90.7913 50.0187 90.6606 50.07 90.4926 50.07C90.3246 50.07 90.1893 50.0187 90.0866 49.916C89.984 49.8133 89.9326 49.678 89.9326 49.51V48.838C89.7553 49.2393 89.4846 49.552 89.1206 49.776C88.7566 49.9907 88.3366 50.098 87.8606 50.098C87.422 50.098 87.016 50.0093 86.6426 49.832C86.2786 49.6547 85.9893 49.4073 85.7746 49.09C85.56 48.7727 85.4526 48.4227 85.4526 48.04C85.4526 47.5267 85.5833 47.13 85.8446 46.85C86.106 46.5607 86.5353 46.3553 87.1326 46.234C87.73 46.1033 88.5606 46.038 89.6246 46.038H89.9326V45.576C89.9326 45.016 89.816 44.6053 89.5826 44.344C89.3586 44.0827 88.99 43.952 88.4766 43.952C87.842 43.952 87.198 44.1247 86.5446 44.47C86.2926 44.6287 86.1153 44.708 86.0126 44.708C85.9006 44.708 85.8073 44.666 85.7326 44.582C85.658 44.498 85.6206 44.3907 85.6206 44.26C85.6206 44.1293 85.658 44.0173 85.7326 43.924C85.8166 43.8213 85.9473 43.7187 86.1246 43.616C86.4513 43.4293 86.82 43.2847 87.2306 43.182C87.6506 43.07 88.066 43.014 88.4766 43.014ZM88.0146 49.202C88.5746 49.202 89.032 49.0153 89.3866 48.642C89.7506 48.2593 89.9326 47.7693 89.9326 47.172V46.766H89.6806C88.8593 46.766 88.234 46.8033 87.8046 46.878C87.3753 46.9433 87.0673 47.06 86.8806 47.228C86.7033 47.3867 86.6146 47.6247 86.6146 47.942C86.6146 48.306 86.7453 48.6093 87.0066 48.852C87.2773 49.0853 87.6133 49.202 88.0146 49.202ZM95.9005 43.014C97.6085 43.014 98.4625 43.91 98.4625 45.702V49.51C98.4625 49.678 98.4111 49.8133 98.3085 49.916C98.2151 50.0187 98.0845 50.07 97.9165 50.07C97.7485 50.07 97.6131 50.0187 97.5105 49.916C97.4078 49.8133 97.3565 49.678 97.3565 49.51V48.838C97.1791 49.2393 96.9085 49.552 96.5445 49.776C96.1805 49.9907 95.7605 50.098 95.2845 50.098C94.8458 50.098 94.4398 50.0093 94.0665 49.832C93.7025 49.6547 93.4131 49.4073 93.1985 49.09C92.9838 48.7727 92.8765 48.4227 92.8765 48.04C92.8765 47.5267 93.0071 47.13 93.2685 46.85C93.5298 46.5607 93.9591 46.3553 94.5565 46.234C95.1538 46.1033 95.9845 46.038 97.0485 46.038H97.3565V45.576C97.3565 45.016 97.2398 44.6053 97.0065 44.344C96.7825 44.0827 96.4138 43.952 95.9005 43.952C95.2658 43.952 94.6218 44.1247 93.9685 44.47C93.7165 44.6287 93.5391 44.708 93.4365 44.708C93.3245 44.708 93.2311 44.666 93.1565 44.582C93.0818 44.498 93.0445 44.3907 93.0445 44.26C93.0445 44.1293 93.0818 44.0173 93.1565 43.924C93.2405 43.8213 93.3711 43.7187 93.5485 43.616C93.8751 43.4293 94.2438 43.2847 94.6545 43.182C95.0745 43.07 95.4898 43.014 95.9005 43.014ZM95.4385 49.202C95.9985 49.202 96.4558 49.0153 96.8105 48.642C97.1745 48.2593 97.3565 47.7693 97.3565 47.172V46.766H97.1045C96.2831 46.766 95.6578 46.8033 95.2285 46.878C94.7991 46.9433 94.4911 47.06 94.3045 47.228C94.1271 47.3867 94.0385 47.6247 94.0385 47.942C94.0385 48.306 94.1691 48.6093 94.4305 48.852C94.7011 49.0853 95.0371 49.202 95.4385 49.202ZM102.834 50.098C102.405 50.098 101.994 50.0467 101.602 49.944C101.22 49.8413 100.879 49.6967 100.58 49.51C100.412 49.398 100.291 49.2953 100.216 49.202C100.151 49.0993 100.118 48.978 100.118 48.838C100.118 48.7167 100.151 48.6187 100.216 48.544C100.291 48.46 100.384 48.418 100.496 48.418C100.608 48.418 100.772 48.488 100.986 48.628C101.266 48.796 101.542 48.9313 101.812 49.034C102.092 49.1273 102.438 49.174 102.848 49.174C103.352 49.174 103.744 49.0853 104.024 48.908C104.304 48.7307 104.444 48.474 104.444 48.138C104.444 47.9327 104.393 47.7693 104.29 47.648C104.188 47.5173 104.01 47.4053 103.758 47.312C103.506 47.2093 103.138 47.1067 102.652 47.004C101.831 46.8267 101.243 46.5887 100.888 46.29C100.534 45.9913 100.356 45.5853 100.356 45.072C100.356 44.6707 100.468 44.316 100.692 44.008C100.916 43.7 101.224 43.4573 101.616 43.28C102.018 43.1027 102.47 43.014 102.974 43.014C103.338 43.014 103.688 43.0653 104.024 43.168C104.37 43.2613 104.673 43.3967 104.934 43.574C105.252 43.798 105.41 44.0313 105.41 44.274C105.41 44.3953 105.373 44.498 105.298 44.582C105.224 44.666 105.135 44.708 105.032 44.708C104.92 44.708 104.752 44.6287 104.528 44.47C104.267 44.302 104.02 44.1713 103.786 44.078C103.553 43.9847 103.264 43.938 102.918 43.938C102.48 43.938 102.125 44.036 101.854 44.232C101.593 44.428 101.462 44.6893 101.462 45.016C101.462 45.2213 101.509 45.3893 101.602 45.52C101.705 45.6413 101.868 45.7533 102.092 45.856C102.326 45.9493 102.657 46.0427 103.086 46.136C103.721 46.276 104.211 46.43 104.556 46.598C104.911 46.766 105.163 46.9713 105.312 47.214C105.462 47.4567 105.536 47.7647 105.536 48.138C105.536 48.726 105.289 49.202 104.794 49.566C104.3 49.9207 103.646 50.098 102.834 50.098ZM119.54 49.342C119.578 49.4167 119.596 49.496 119.596 49.58C119.596 49.72 119.54 49.8367 119.428 49.93C119.326 50.0233 119.2 50.07 119.05 50.07C118.817 50.07 118.654 49.958 118.56 49.734L117.566 47.466H112.288L111.28 49.734C111.187 49.958 111.024 50.07 110.79 50.07C110.641 50.07 110.51 50.0233 110.398 49.93C110.286 49.8273 110.23 49.706 110.23 49.566C110.23 49.4913 110.249 49.4167 110.286 49.342L114.29 40.438C114.346 40.3073 114.43 40.2093 114.542 40.144C114.654 40.0787 114.776 40.046 114.906 40.046C115.046 40.046 115.172 40.0833 115.284 40.158C115.396 40.2233 115.48 40.3167 115.536 40.438L119.54 49.342ZM117.146 46.514L114.92 41.488L112.708 46.514H117.146ZM126.52 40.06C126.697 40.06 126.837 40.1113 126.94 40.214C127.043 40.3167 127.094 40.4473 127.094 40.606V49.51C127.094 49.678 127.043 49.8133 126.94 49.916C126.837 50.0187 126.697 50.07 126.52 50.07C126.343 50.07 126.203 50.0187 126.1 49.916C126.007 49.8133 125.96 49.678 125.96 49.51V48.754C125.755 49.1833 125.451 49.5147 125.05 49.748C124.658 49.9813 124.196 50.098 123.664 50.098C123.067 50.098 122.539 49.9487 122.082 49.65C121.625 49.3513 121.27 48.936 121.018 48.404C120.766 47.8627 120.64 47.2373 120.64 46.528C120.64 45.828 120.766 45.212 121.018 44.68C121.27 44.148 121.625 43.7373 122.082 43.448C122.539 43.1587 123.067 43.014 123.664 43.014C124.196 43.014 124.658 43.1307 125.05 43.364C125.451 43.5973 125.755 43.9287 125.96 44.358V40.606C125.96 40.438 126.007 40.3073 126.1 40.214C126.203 40.1113 126.343 40.06 126.52 40.06ZM123.888 49.16C124.551 49.16 125.059 48.936 125.414 48.488C125.778 48.0307 125.96 47.3867 125.96 46.556C125.96 45.7253 125.778 45.086 125.414 44.638C125.059 44.19 124.551 43.966 123.888 43.966C123.225 43.966 122.707 44.19 122.334 44.638C121.97 45.086 121.788 45.716 121.788 46.528C121.788 47.3587 121.97 48.0073 122.334 48.474C122.707 48.9313 123.225 49.16 123.888 49.16ZM136.783 43.014C138.295 43.014 139.051 43.9147 139.051 45.716V49.51C139.051 49.6873 138.999 49.8273 138.897 49.93C138.794 50.0233 138.659 50.07 138.491 50.07C138.323 50.07 138.183 50.0233 138.071 49.93C137.968 49.8273 137.917 49.6873 137.917 49.51V45.744C137.917 45.1187 137.805 44.666 137.581 44.386C137.357 44.106 137.007 43.966 136.531 43.966C135.961 43.966 135.513 44.1573 135.187 44.54C134.86 44.9227 134.697 45.4407 134.697 46.094V49.51C134.697 49.6873 134.641 49.8273 134.529 49.93C134.426 50.0233 134.291 50.07 134.123 50.07C133.955 50.07 133.819 50.0233 133.717 49.93C133.614 49.8273 133.563 49.6873 133.563 49.51V45.744C133.563 45.1187 133.451 44.666 133.227 44.386C133.003 44.106 132.648 43.966 132.163 43.966C131.603 43.966 131.155 44.1573 130.819 44.54C130.492 44.9227 130.329 45.4407 130.329 46.094V49.51C130.329 49.6873 130.277 49.8273 130.175 49.93C130.072 50.0233 129.937 50.07 129.769 50.07C129.601 50.07 129.461 50.0233 129.349 49.93C129.246 49.8273 129.195 49.6873 129.195 49.51V43.602C129.195 43.434 129.246 43.2987 129.349 43.196C129.461 43.0933 129.601 43.042 129.769 43.042C129.927 43.042 130.058 43.0933 130.161 43.196C130.263 43.2893 130.315 43.42 130.315 43.588V44.26C130.52 43.8587 130.805 43.5507 131.169 43.336C131.533 43.1213 131.953 43.014 132.429 43.014C133.493 43.014 134.188 43.462 134.515 44.358C134.711 43.9473 135.009 43.6207 135.411 43.378C135.812 43.1353 136.269 43.014 136.783 43.014ZM141.69 50.07C141.522 50.07 141.382 50.0233 141.27 49.93C141.168 49.8273 141.116 49.6873 141.116 49.51V43.602C141.116 43.4247 141.168 43.2893 141.27 43.196C141.382 43.0933 141.522 43.042 141.69 43.042C141.858 43.042 141.994 43.0933 142.096 43.196C142.199 43.2893 142.25 43.4247 142.25 43.602V49.51C142.25 49.6967 142.199 49.8367 142.096 49.93C141.994 50.0233 141.858 50.07 141.69 50.07ZM141.69 41.572C141.466 41.572 141.284 41.5067 141.144 41.376C141.004 41.2453 140.934 41.0727 140.934 40.858C140.934 40.6527 141.004 40.4847 141.144 40.354C141.284 40.2233 141.466 40.158 141.69 40.158C141.914 40.158 142.096 40.2233 142.236 40.354C142.376 40.4847 142.446 40.6527 142.446 40.858C142.446 41.0727 142.376 41.2453 142.236 41.376C142.096 41.5067 141.914 41.572 141.69 41.572ZM147.8 43.014C149.434 43.014 150.25 43.9147 150.25 45.716V49.51C150.25 49.6873 150.199 49.8273 150.096 49.93C150.003 50.0233 149.868 50.07 149.69 50.07C149.513 50.07 149.373 50.0233 149.27 49.93C149.168 49.8273 149.116 49.6873 149.116 49.51V45.786C149.116 45.1513 148.99 44.6893 148.738 44.4C148.496 44.1107 148.104 43.966 147.562 43.966C146.937 43.966 146.438 44.1573 146.064 44.54C145.691 44.9227 145.504 45.4407 145.504 46.094V49.51C145.504 49.6873 145.453 49.8273 145.35 49.93C145.257 50.0233 145.122 50.07 144.944 50.07C144.767 50.07 144.627 50.0233 144.524 49.93C144.422 49.8273 144.37 49.6873 144.37 49.51V43.602C144.37 43.434 144.422 43.2987 144.524 43.196C144.627 43.0933 144.767 43.042 144.944 43.042C145.112 43.042 145.243 43.0933 145.336 43.196C145.439 43.2987 145.49 43.4293 145.49 43.588V44.302C145.714 43.882 146.027 43.5647 146.428 43.35C146.83 43.126 147.287 43.014 147.8 43.014ZM156.693 50C156.515 50 156.371 49.9487 156.259 49.846C156.156 49.7433 156.105 49.608 156.105 49.44V40.69C156.105 40.522 156.156 40.3867 156.259 40.284C156.371 40.1813 156.515 40.13 156.693 40.13H159.423C161 40.13 162.218 40.5593 163.077 41.418C163.945 42.2673 164.379 43.4807 164.379 45.058C164.379 46.6353 163.945 47.8533 163.077 48.712C162.209 49.5707 160.991 50 159.423 50H156.693ZM159.353 49.02C161.91 49.02 163.189 47.6993 163.189 45.058C163.189 42.426 161.91 41.11 159.353 41.11H157.253V49.02H159.353ZM169.072 43.014C170.78 43.014 171.634 43.91 171.634 45.702V49.51C171.634 49.678 171.583 49.8133 171.48 49.916C171.387 50.0187 171.256 50.07 171.088 50.07C170.92 50.07 170.785 50.0187 170.682 49.916C170.58 49.8133 170.528 49.678 170.528 49.51V48.838C170.351 49.2393 170.08 49.552 169.716 49.776C169.352 49.9907 168.932 50.098 168.456 50.098C168.018 50.098 167.612 50.0093 167.238 49.832C166.874 49.6547 166.585 49.4073 166.37 49.09C166.156 48.7727 166.048 48.4227 166.048 48.04C166.048 47.5267 166.179 47.13 166.44 46.85C166.702 46.5607 167.131 46.3553 167.728 46.234C168.326 46.1033 169.156 46.038 170.22 46.038H170.528V45.576C170.528 45.016 170.412 44.6053 170.178 44.344C169.954 44.0827 169.586 43.952 169.072 43.952C168.438 43.952 167.794 44.1247 167.14 44.47C166.888 44.6287 166.711 44.708 166.608 44.708C166.496 44.708 166.403 44.666 166.328 44.582C166.254 44.498 166.216 44.3907 166.216 44.26C166.216 44.1293 166.254 44.0173 166.328 43.924C166.412 43.8213 166.543 43.7187 166.72 43.616C167.047 43.4293 167.416 43.2847 167.826 43.182C168.246 43.07 168.662 43.014 169.072 43.014ZM168.61 49.202C169.17 49.202 169.628 49.0153 169.982 48.642C170.346 48.2593 170.528 47.7693 170.528 47.172V46.766H170.276C169.455 46.766 168.83 46.8033 168.4 46.878C167.971 46.9433 167.663 47.06 167.476 47.228C167.299 47.3867 167.21 47.6247 167.21 47.942C167.21 48.306 167.341 48.6093 167.602 48.852C167.873 49.0853 168.209 49.202 168.61 49.202ZM176.006 50.098C175.577 50.098 175.166 50.0467 174.774 49.944C174.391 49.8413 174.051 49.6967 173.752 49.51C173.584 49.398 173.463 49.2953 173.388 49.202C173.323 49.0993 173.29 48.978 173.29 48.838C173.29 48.7167 173.323 48.6187 173.388 48.544C173.463 48.46 173.556 48.418 173.668 48.418C173.78 48.418 173.943 48.488 174.158 48.628C174.438 48.796 174.713 48.9313 174.984 49.034C175.264 49.1273 175.609 49.174 176.02 49.174C176.524 49.174 176.916 49.0853 177.196 48.908C177.476 48.7307 177.616 48.474 177.616 48.138C177.616 47.9327 177.565 47.7693 177.462 47.648C177.359 47.5173 177.182 47.4053 176.93 47.312C176.678 47.2093 176.309 47.1067 175.824 47.004C175.003 46.8267 174.415 46.5887 174.06 46.29C173.705 45.9913 173.528 45.5853 173.528 45.072C173.528 44.6707 173.64 44.316 173.864 44.008C174.088 43.7 174.396 43.4573 174.788 43.28C175.189 43.1027 175.642 43.014 176.146 43.014C176.51 43.014 176.86 43.0653 177.196 43.168C177.541 43.2613 177.845 43.3967 178.106 43.574C178.423 43.798 178.582 44.0313 178.582 44.274C178.582 44.3953 178.545 44.498 178.47 44.582C178.395 44.666 178.307 44.708 178.204 44.708C178.092 44.708 177.924 44.6287 177.7 44.47C177.439 44.302 177.191 44.1713 176.958 44.078C176.725 43.9847 176.435 43.938 176.09 43.938C175.651 43.938 175.297 44.036 175.026 44.232C174.765 44.428 174.634 44.6893 174.634 45.016C174.634 45.2213 174.681 45.3893 174.774 45.52C174.877 45.6413 175.04 45.7533 175.264 45.856C175.497 45.9493 175.829 46.0427 176.258 46.136C176.893 46.276 177.383 46.43 177.728 46.598C178.083 46.766 178.335 46.9713 178.484 47.214C178.633 47.4567 178.708 47.7647 178.708 48.138C178.708 48.726 178.461 49.202 177.966 49.566C177.471 49.9207 176.818 50.098 176.006 50.098ZM183.881 43.014C184.683 43.014 185.29 43.2427 185.701 43.7C186.111 44.148 186.317 44.82 186.317 45.716V49.51C186.317 49.6873 186.265 49.8273 186.163 49.93C186.06 50.0233 185.925 50.07 185.757 50.07C185.579 50.07 185.439 50.0233 185.337 49.93C185.234 49.8273 185.183 49.6873 185.183 49.51V45.744C185.183 45.1373 185.057 44.6893 184.805 44.4C184.562 44.1107 184.17 43.966 183.629 43.966C183.003 43.966 182.504 44.1573 182.131 44.54C181.757 44.9227 181.571 45.4407 181.571 46.094V49.51C181.571 49.6873 181.519 49.8273 181.417 49.93C181.323 50.0233 181.188 50.07 181.011 50.07C180.833 50.07 180.693 50.0233 180.591 49.93C180.488 49.8273 180.437 49.6873 180.437 49.51V40.606C180.437 40.4473 180.488 40.3167 180.591 40.214C180.703 40.1113 180.843 40.06 181.011 40.06C181.188 40.06 181.323 40.1113 181.417 40.214C181.519 40.3073 181.571 40.438 181.571 40.606V44.274C181.795 43.8633 182.107 43.5507 182.509 43.336C182.91 43.1213 183.367 43.014 183.881 43.014ZM191.824 43.014C192.421 43.014 192.948 43.1587 193.406 43.448C193.863 43.7373 194.218 44.148 194.47 44.68C194.722 45.212 194.848 45.828 194.848 46.528C194.848 47.2373 194.722 47.8627 194.47 48.404C194.218 48.936 193.863 49.3513 193.406 49.65C192.948 49.9487 192.421 50.098 191.824 50.098C191.292 50.098 190.825 49.9813 190.424 49.748C190.032 49.5147 189.733 49.1833 189.528 48.754V49.51C189.528 49.678 189.476 49.8133 189.374 49.916C189.28 50.0187 189.145 50.07 188.968 50.07C188.79 50.07 188.65 50.0187 188.548 49.916C188.445 49.8133 188.394 49.678 188.394 49.51V40.606C188.394 40.4473 188.445 40.3167 188.548 40.214C188.65 40.1113 188.79 40.06 188.968 40.06C189.145 40.06 189.28 40.1113 189.374 40.214C189.476 40.3073 189.528 40.438 189.528 40.606V44.358C189.733 43.9287 190.032 43.5973 190.424 43.364C190.825 43.1307 191.292 43.014 191.824 43.014ZM191.6 49.16C192.262 49.16 192.776 48.9313 193.14 48.474C193.504 48.0073 193.686 47.3587 193.686 46.528C193.686 45.716 193.504 45.086 193.14 44.638C192.776 44.19 192.262 43.966 191.6 43.966C190.937 43.966 190.424 44.19 190.06 44.638C189.705 45.086 189.528 45.7253 189.528 46.556C189.528 47.3867 189.705 48.0307 190.06 48.488C190.424 48.936 190.937 49.16 191.6 49.16ZM199.37 50.098C198.726 50.098 198.157 49.9533 197.662 49.664C197.177 49.3747 196.799 48.964 196.528 48.432C196.267 47.8907 196.136 47.2653 196.136 46.556C196.136 45.8467 196.267 45.226 196.528 44.694C196.799 44.1527 197.177 43.7373 197.662 43.448C198.157 43.1587 198.726 43.014 199.37 43.014C200.014 43.014 200.584 43.1587 201.078 43.448C201.573 43.7373 201.951 44.1527 202.212 44.694C202.483 45.226 202.618 45.8467 202.618 46.556C202.618 47.2653 202.483 47.8907 202.212 48.432C201.951 48.964 201.573 49.3747 201.078 49.664C200.584 49.9533 200.014 50.098 199.37 50.098ZM199.37 49.16C200.042 49.16 200.556 48.9407 200.91 48.502C201.274 48.054 201.456 47.4053 201.456 46.556C201.456 45.7253 201.274 45.086 200.91 44.638C200.546 44.1807 200.033 43.952 199.37 43.952C198.708 43.952 198.194 44.1807 197.83 44.638C197.466 45.086 197.284 45.7253 197.284 46.556C197.284 47.396 197.462 48.04 197.816 48.488C198.18 48.936 198.698 49.16 199.37 49.16ZM207.094 43.014C208.802 43.014 209.656 43.91 209.656 45.702V49.51C209.656 49.678 209.604 49.8133 209.502 49.916C209.408 50.0187 209.278 50.07 209.11 50.07C208.942 50.07 208.806 50.0187 208.704 49.916C208.601 49.8133 208.55 49.678 208.55 49.51V48.838C208.372 49.2393 208.102 49.552 207.738 49.776C207.374 49.9907 206.954 50.098 206.478 50.098C206.039 50.098 205.633 50.0093 205.26 49.832C204.896 49.6547 204.606 49.4073 204.392 49.09C204.177 48.7727 204.07 48.4227 204.07 48.04C204.07 47.5267 204.2 47.13 204.462 46.85C204.723 46.5607 205.152 46.3553 205.75 46.234C206.347 46.1033 207.178 46.038 208.242 46.038H208.55V45.576C208.55 45.016 208.433 44.6053 208.2 44.344C207.976 44.0827 207.607 43.952 207.094 43.952C206.459 43.952 205.815 44.1247 205.162 44.47C204.91 44.6287 204.732 44.708 204.63 44.708C204.518 44.708 204.424 44.666 204.35 44.582C204.275 44.498 204.238 44.3907 204.238 44.26C204.238 44.1293 204.275 44.0173 204.35 43.924C204.434 43.8213 204.564 43.7187 204.742 43.616C205.068 43.4293 205.437 43.2847 205.848 43.182C206.268 43.07 206.683 43.014 207.094 43.014ZM206.632 49.202C207.192 49.202 207.649 49.0153 208.004 48.642C208.368 48.2593 208.55 47.7693 208.55 47.172V46.766H208.298C207.476 46.766 206.851 46.8033 206.422 46.878C205.992 46.9433 205.684 47.06 205.498 47.228C205.32 47.3867 205.232 47.6247 205.232 47.942C205.232 48.306 205.362 48.6093 205.624 48.852C205.894 49.0853 206.23 49.202 206.632 49.202ZM215.106 43.042C215.498 43.014 215.694 43.1727 215.694 43.518C215.694 43.6673 215.652 43.7887 215.568 43.882C215.484 43.966 215.339 44.0173 215.134 44.036L214.714 44.078C214.088 44.134 213.622 44.358 213.314 44.75C213.015 45.1327 212.866 45.5853 212.866 46.108V49.51C212.866 49.6967 212.814 49.8367 212.712 49.93C212.609 50.0233 212.474 50.07 212.306 50.07C212.138 50.07 211.998 50.0233 211.886 49.93C211.783 49.8273 211.732 49.6873 211.732 49.51V43.602C211.732 43.4247 211.788 43.2893 211.9 43.196C212.012 43.0933 212.147 43.042 212.306 43.042C212.455 43.042 212.581 43.0933 212.684 43.196C212.786 43.2893 212.838 43.42 212.838 43.588V44.372C213.034 43.9613 213.309 43.6487 213.664 43.434C214.028 43.2193 214.443 43.0933 214.91 43.056L215.106 43.042ZM222.004 40.06C222.182 40.06 222.322 40.1113 222.424 40.214C222.527 40.3167 222.578 40.4473 222.578 40.606V49.51C222.578 49.678 222.527 49.8133 222.424 49.916C222.322 50.0187 222.182 50.07 222.004 50.07C221.827 50.07 221.687 50.0187 221.584 49.916C221.491 49.8133 221.444 49.678 221.444 49.51V48.754C221.239 49.1833 220.936 49.5147 220.534 49.748C220.142 49.9813 219.68 50.098 219.148 50.098C218.551 50.098 218.024 49.9487 217.566 49.65C217.109 49.3513 216.754 48.936 216.502 48.404C216.25 47.8627 216.124 47.2373 216.124 46.528C216.124 45.828 216.25 45.212 216.502 44.68C216.754 44.148 217.109 43.7373 217.566 43.448C218.024 43.1587 218.551 43.014 219.148 43.014C219.68 43.014 220.142 43.1307 220.534 43.364C220.936 43.5973 221.239 43.9287 221.444 44.358V40.606C221.444 40.438 221.491 40.3073 221.584 40.214C221.687 40.1113 221.827 40.06 222.004 40.06ZM219.372 49.16C220.035 49.16 220.544 48.936 220.898 48.488C221.262 48.0307 221.444 47.3867 221.444 46.556C221.444 45.7253 221.262 45.086 220.898 44.638C220.544 44.19 220.035 43.966 219.372 43.966C218.71 43.966 218.192 44.19 217.818 44.638C217.454 45.086 217.272 45.716 217.272 46.528C217.272 47.3587 217.454 48.0073 217.818 48.474C218.192 48.9313 218.71 49.16 219.372 49.16Z" fill="#717579"/>
<path fill-rule="evenodd" clip-rule="evenodd" d="M27.5 0C12.3122 0 0 12.3122 0 27.5C0 42.6878 12.3122 55 27.5 55C42.6878 55 55 42.6878 55 27.5C55 12.3122 42.6878 0 27.5 0ZM28.0092 46H19L19.0001 34.9784L19 27.5803V24.4779C19 14.3752 24.0922 10 35.3733 10V17.5571C29.8894 17.5571 28.0092 19.4663 28.0092 24.4779V27.5803H36V34.9784H28.0092V46Z" fill="url(#paint0_linear_114_3045)"/>
<defs>
<linearGradient id="paint0_linear_114_3045" x1="41" y1="-4.5" x2="7" y2="55" gradientUnits="userSpaceOnUse">
<stop stop-color="#886CC0"/>
<stop offset="1" stop-color="#AA5DE8"/>
</linearGradient>
</defs>
</svg>
